<svg id="svg" version="1.1" xmlns="http://www.w3.org/2000/svg" xmlns:xlink="http://www.w3.org/1999/xlink" width="400" height="510.95890410958907" viewBox="0, 0, 400,510.95890410958907"><g id="svgg"><path id="path0" d="M225.200 80.200 C 225.200 81.333,225.352 81.600,226.000 81.600 C 226.444 81.600,226.800 81.867,226.800 82.200 C 226.800 82.530,227.070 82.800,227.400 82.800 C 227.730 82.800,228.000 83.058,228.000 83.373 C 228.000 83.688,228.360 84.060,228.800 84.200 C 229.240 84.340,229.600 84.712,229.600 85.027 C 229.600 85.342,229.870 85.600,230.200 85.600 C 230.530 85.600,230.800 85.870,230.800 86.200 C 230.800 86.530,231.049 86.800,231.353 86.800 C 231.658 86.800,232.001 87.160,232.116 87.600 C 232.231 88.040,232.612 88.400,232.963 88.400 C 233.313 88.400,233.600 88.670,233.600 89.000 C 233.600 89.330,233.870 89.600,234.200 89.600 C 234.533 89.600,234.800 89.956,234.800 90.400 C 234.800 90.933,235.067 91.200,235.600 91.200 C 236.044 91.200,236.400 91.467,236.400 91.800 C 236.400 92.130,236.670 92.400,237.000 92.400 C 237.330 92.400,237.600 92.658,237.600 92.973 C 237.600 93.288,237.960 93.660,238.400 93.800 C 238.840 93.940,239.200 94.312,239.200 94.627 C 239.200 94.942,239.470 95.200,239.800 95.200 C 240.130 95.200,240.400 95.470,240.400 95.800 C 240.400 96.130,240.658 96.400,240.973 96.400 C 241.288 96.400,241.660 96.760,241.800 97.200 C 241.940 97.640,242.312 98.000,242.627 98.000 C 242.942 98.000,243.200 98.270,243.200 98.600 C 243.200 98.930,243.470 99.200,243.800 99.200 C 244.133 99.200,244.400 99.556,244.400 100.000 C 244.400 100.440,244.535 100.779,244.700 100.753 C 245.525 100.622,246.000 100.859,246.000 101.400 C 246.000 101.730,246.270 102.000,246.600 102.000 C 246.930 102.000,247.200 102.270,247.200 102.600 C 247.200 102.933,247.556 103.200,248.000 103.200 C 248.533 103.200,248.800 103.467,248.800 104.000 C 248.800 104.444,249.067 104.800,249.400 104.800 C 249.730 104.800,250.000 105.070,250.000 105.400 C 250.000 105.730,250.249 106.000,250.553 106.000 C 250.858 106.000,251.201 106.360,251.316 106.800 C 251.431 107.240,251.812 107.600,252.163 107.600 C 252.513 107.600,252.800 107.870,252.800 108.200 C 252.800 108.530,253.070 108.800,253.400 108.800 C 253.730 108.800,254.000 109.049,254.000 109.353 C 254.000 109.658,254.360 110.001,254.800 110.116 C 255.240 110.231,255.600 110.612,255.600 110.963 C 255.600 111.313,255.870 111.600,256.200 111.600 C 256.530 111.600,256.800 111.870,256.800 112.200 C 256.800 112.533,257.156 112.800,257.600 112.800 C 258.133 112.800,258.400 113.067,258.400 113.600 C 258.400 114.044,258.667 114.400,259.000 114.400 C 259.330 114.400,259.600 114.670,259.600 115.000 C 259.600 115.330,259.870 115.600,260.200 115.600 C 260.533 115.600,260.800 115.956,260.800 116.400 C 260.800 116.933,261.067 117.200,261.600 117.200 C 262.044 117.200,262.400 117.467,262.400 117.800 C 262.400 118.130,262.649 118.400,262.953 118.400 C 263.258 118.400,263.601 118.760,263.716 119.200 C 263.831 119.640,264.212 120.000,264.563 120.000 C 264.913 120.000,265.200 120.270,265.200 120.600 C 265.200 120.930,265.470 121.200,265.800 121.200 C 266.130 121.200,266.400 121.470,266.400 121.800 C 266.400 122.133,266.756 122.400,267.200 122.400 C 267.733 122.400,268.000 122.667,268.000 123.200 C 268.000 123.644,268.267 124.000,268.600 124.000 C 268.930 124.000,269.200 124.270,269.200 124.600 C 269.200 124.930,269.470 125.200,269.800 125.200 C 270.133 125.200,270.400 125.556,270.400 126.000 C 270.400 126.440,270.535 126.779,270.700 126.753 C 271.525 126.622,272.000 126.859,272.000 127.400 C 272.000 127.730,272.249 128.000,272.553 128.000 C 272.858 128.000,273.201 128.360,273.316 128.800 C 273.431 129.240,273.812 129.600,274.163 129.600 C 274.513 129.600,274.800 129.870,274.800 130.200 C 274.800 130.530,275.070 130.800,275.400 130.800 C 275.730 130.800,276.000 131.070,276.000 131.400 C 276.000 131.730,276.258 132.000,276.573 132.000 C 276.888 132.000,277.260 132.360,277.400 132.800 C 277.540 133.240,277.912 133.600,278.227 133.600 C 278.542 133.600,278.800 133.870,278.800 134.200 C 278.800 134.530,279.070 134.800,279.400 134.800 C 279.733 134.800,280.000 135.156,280.000 135.600 C 280.000 136.133,280.267 136.400,280.800 136.400 C 281.244 136.400,281.600 136.667,281.600 137.000 C 281.600 137.330,281.870 137.600,282.200 137.600 C 282.530 137.600,282.800 137.870,282.800 138.200 C 282.800 138.533,283.156 138.800,283.600 138.800 C 284.133 138.800,284.400 139.067,284.400 139.600 C 284.400 140.044,284.667 140.400,285.000 140.400 C 285.330 140.400,285.600 140.670,285.600 141.000 C 285.600 141.330,285.849 141.600,286.153 141.600 C 286.458 141.600,286.801 141.960,286.916 142.400 C 287.031 142.840,287.412 143.200,287.763 143.200 C 288.113 143.200,288.400 143.470,288.400 143.800 C 288.400 144.130,288.658 144.400,288.973 144.400 C 289.288 144.400,289.660 144.760,289.800 145.200 C 289.940 145.640,290.312 146.000,290.627 146.000 C 290.942 146.000,291.200 146.270,291.200 146.600 C 291.200 146.930,291.470 147.200,291.800 147.200 C 292.130 147.200,292.400 147.470,292.400 147.800 C 292.400 148.133,292.756 148.400,293.200 148.400 C 293.733 148.400,294.000 148.667,294.000 149.200 C 294.000 149.644,294.267 150.000,294.600 150.000 C 294.930 150.000,295.200 150.270,295.200 150.600 C 295.200 150.930,295.449 151.200,295.753 151.200 C 296.058 151.200,296.401 151.560,296.516 152.000 C 296.631 152.440,297.012 152.800,297.363 152.800 C 297.713 152.800,298.000 153.070,298.000 153.400 C 298.000 153.730,298.249 154.000,298.553 154.000 C 298.858 154.000,299.207 154.383,299.329 154.852 C 299.478 155.421,299.759 155.624,300.176 155.465 C 300.611 155.298,300.800 155.464,300.800 156.013 C 300.800 156.446,301.070 156.800,301.400 156.800 C 301.730 156.800,302.000 157.070,302.000 157.400 C 302.000 157.733,302.356 158.000,302.800 158.000 C 303.333 158.000,303.600 158.267,303.600 158.800 C 303.600 159.244,303.867 159.600,304.200 159.600 C 304.530 159.600,304.800 159.870,304.800 160.200 C 304.800 160.530,305.049 160.800,305.353 160.800 C 305.658 160.800,306.001 161.160,306.116 161.600 C 306.231 162.040,306.612 162.400,306.963 162.400 C 307.313 162.400,307.600 162.670,307.600 163.000 C 307.600 163.330,307.849 163.600,308.153 163.600 C 308.458 163.600,308.801 163.960,308.916 164.400 C 309.031 164.840,309.412 165.200,309.763 165.200 C 310.113 165.200,310.400 165.470,310.400 165.800 C 310.400 166.130,310.670 166.400,311.000 166.400 C 311.330 166.400,311.600 166.670,311.600 167.000 C 311.600 167.333,311.956 167.600,312.400 167.600 C 312.933 167.600,313.200 167.867,313.200 168.400 C 313.200 168.844,313.467 169.200,313.800 169.200 C 314.130 169.200,314.400 169.470,314.400 169.800 C 314.400 170.130,314.649 170.400,314.953 170.400 C 315.258 170.400,315.601 170.760,315.716 171.200 C 315.831 171.640,316.212 172.000,316.563 172.000 C 316.913 172.000,317.200 172.270,317.200 172.600 C 317.200 172.930,317.470 173.200,317.800 173.200 C 318.130 173.200,318.400 173.458,318.400 173.773 C 318.400 174.088,318.760 174.460,319.200 174.600 C 319.640 174.740,320.000 175.112,320.000 175.427 C 320.000 176.235,322.244 176.183,322.557 175.367 C 322.875 174.540,322.875 80.260,322.557 79.433 C 322.338 78.861,317.666 78.800,273.757 78.800 L 225.200 78.800 225.200 80.200 M322.594 374.400 C 322.594 400.910,322.641 411.755,322.700 398.500 C 322.758 385.245,322.758 363.555,322.700 350.300 C 322.641 337.045,322.594 347.890,322.594 374.400 " stroke="none" fill="#f444dc" fill-rule="evenodd"></path><path id="path1" d="M76.000 376.600 L 76.000 425.200 124.600 425.200 L 173.200 425.200 173.200 423.800 C 173.200 422.822,173.019 422.400,172.600 422.400 C 172.270 422.400,172.000 422.130,172.000 421.800 C 172.000 421.467,171.644 421.200,171.200 421.200 C 170.667 421.200,170.400 420.933,170.400 420.400 C 170.400 419.956,170.133 419.600,169.800 419.600 C 169.470 419.600,169.200 419.330,169.200 419.000 C 169.200 418.670,168.930 418.400,168.600 418.400 C 168.270 418.400,168.000 418.142,168.000 417.827 C 168.000 417.512,167.640 417.140,167.200 417.000 C 166.760 416.860,166.400 416.488,166.400 416.173 C 166.400 415.858,166.130 415.600,165.800 415.600 C 165.470 415.600,165.200 415.330,165.200 415.000 C 165.200 414.667,164.844 414.400,164.400 414.400 C 163.867 414.400,163.600 414.133,163.600 413.600 C 163.600 413.156,163.333 412.800,163.000 412.800 C 162.670 412.800,162.400 412.530,162.400 412.200 C 162.400 411.867,162.044 411.600,161.600 411.600 C 161.067 411.600,160.800 411.333,160.800 410.800 C 160.800 410.356,160.533 410.000,160.200 410.000 C 159.870 410.000,159.600 409.730,159.600 409.400 C 159.600 409.070,159.330 408.800,159.000 408.800 C 158.670 408.800,158.400 408.530,158.400 408.200 C 158.400 407.867,158.044 407.600,157.600 407.600 C 157.067 407.600,156.800 407.333,156.800 406.800 C 156.800 406.356,156.533 406.000,156.200 406.000 C 155.870 406.000,155.600 405.730,155.600 405.400 C 155.600 405.067,155.244 404.800,154.800 404.800 C 154.267 404.800,154.000 404.533,154.000 404.000 C 154.000 403.556,153.733 403.200,153.400 403.200 C 153.070 403.200,152.800 402.930,152.800 402.600 C 152.800 402.267,152.444 402.000,152.000 402.000 C 151.467 402.000,151.200 401.733,151.200 401.200 C 151.200 400.756,150.933 400.400,150.600 400.400 C 150.270 400.400,150.000 400.130,150.000 399.800 C 150.000 399.470,149.730 399.200,149.400 399.200 C 149.070 399.200,148.800 398.930,148.800 398.600 C 148.800 398.267,148.444 398.000,148.000 398.000 C 147.467 398.000,147.200 397.733,147.200 397.200 C 147.200 396.756,146.933 396.400,146.600 396.400 C 146.270 396.400,146.000 396.130,146.000 395.800 C 146.000 395.467,145.644 395.200,145.200 395.200 C 144.667 395.200,144.400 394.933,144.400 394.400 C 144.400 393.956,144.133 393.600,143.800 393.600 C 143.470 393.600,143.200 393.330,143.200 393.000 C 143.200 392.667,142.844 392.400,142.400 392.400 C 141.948 392.400,141.600 392.133,141.600 391.787 C 141.600 391.451,141.330 391.071,141.000 390.945 C 140.670 390.818,140.400 390.464,140.400 390.157 C 140.400 389.851,140.130 389.600,139.800 389.600 C 139.470 389.600,139.200 389.330,139.200 389.000 C 139.200 388.667,138.844 388.400,138.400 388.400 C 137.867 388.400,137.600 388.133,137.600 387.600 C 137.600 387.156,137.333 386.800,137.000 386.800 C 136.670 386.800,136.400 386.530,136.400 386.200 C 136.400 385.867,136.044 385.600,135.600 385.600 C 135.067 385.600,134.800 385.333,134.800 384.800 C 134.800 384.356,134.533 384.000,134.200 384.000 C 133.870 384.000,133.600 383.730,133.600 383.400 C 133.600 383.067,133.244 382.800,132.800 382.800 C 132.267 382.800,132.000 382.533,132.000 382.000 C 132.000 381.556,131.733 381.200,131.400 381.200 C 131.070 381.200,130.800 380.930,130.800 380.600 C 130.800 380.270,130.530 380.000,130.200 380.000 C 129.870 380.000,129.600 379.730,129.600 379.400 C 129.600 379.067,129.244 378.800,128.800 378.800 C 128.267 378.800,128.000 378.533,128.000 378.000 C 128.000 377.556,127.733 377.200,127.400 377.200 C 127.070 377.200,126.800 376.930,126.800 376.600 C 126.800 376.267,126.444 376.000,126.000 376.000 C 125.467 376.000,125.200 375.733,125.200 375.200 C 125.200 374.756,124.933 374.400,124.600 374.400 C 124.270 374.400,124.000 374.130,124.000 373.800 C 124.000 373.470,123.749 373.200,123.443 373.200 C 123.136 373.200,122.782 372.930,122.655 372.600 C 122.529 372.270,122.149 372.000,121.813 372.000 C 121.476 372.000,121.200 371.661,121.200 371.247 C 121.200 370.818,120.838 370.399,120.360 370.274 C 119.897 370.153,119.638 369.862,119.783 369.627 C 119.938 369.377,119.705 369.200,119.224 369.200 C 118.667 369.200,118.400 368.941,118.400 368.400 C 118.400 367.956,118.133 367.600,117.800 367.600 C 117.470 367.600,117.200 367.330,117.200 367.000 C 117.200 366.667,116.844 366.400,116.400 366.400 C 115.867 366.400,115.600 366.133,115.600 365.600 C 115.600 365.156,115.333 364.800,115.000 364.800 C 114.670 364.800,114.400 364.530,114.400 364.200 C 114.400 363.870,114.130 363.600,113.800 363.600 C 113.470 363.600,113.200 363.330,113.200 363.000 C 113.200 362.667,112.844 362.400,112.400 362.400 C 111.867 362.400,111.600 362.133,111.600 361.600 C 111.600 361.156,111.333 360.800,111.000 360.800 C 110.670 360.800,110.400 360.530,110.400 360.200 C 110.400 359.867,110.044 359.600,109.600 359.600 C 109.067 359.600,108.800 359.333,108.800 358.800 C 108.800 358.356,108.533 358.000,108.200 358.000 C 107.870 358.000,107.600 357.730,107.600 357.400 C 107.600 357.067,107.244 356.800,106.800 356.800 C 106.348 356.800,106.000 356.533,106.000 356.187 C 106.000 355.851,105.730 355.471,105.400 355.345 C 105.070 355.218,104.800 354.864,104.800 354.557 C 104.800 354.251,104.549 354.000,104.243 354.000 C 103.936 354.000,103.582 353.730,103.455 353.400 C 103.329 353.070,102.949 352.800,102.613 352.800 C 102.267 352.800,102.000 352.452,102.000 352.000 C 102.000 351.556,101.733 351.200,101.400 351.200 C 101.070 351.200,100.800 350.930,100.800 350.600 C 100.800 350.267,100.444 350.000,100.000 350.000 C 99.467 350.000,99.200 349.733,99.200 349.200 C 99.200 348.756,98.933 348.400,98.600 348.400 C 98.270 348.400,98.000 348.130,98.000 347.800 C 98.000 347.467,97.644 347.200,97.200 347.200 C 96.667 347.200,96.400 346.933,96.400 346.400 C 96.400 345.956,96.133 345.600,95.800 345.600 C 95.470 345.600,95.200 345.330,95.200 345.000 C 95.200 344.670,94.930 344.400,94.600 344.400 C 94.270 344.400,94.000 344.130,94.000 343.800 C 94.000 343.467,93.644 343.200,93.200 343.200 C 92.667 343.200,92.400 342.933,92.400 342.400 C 92.400 341.956,92.133 341.600,91.800 341.600 C 91.470 341.600,91.200 341.330,91.200 341.000 C 91.200 340.667,90.844 340.400,90.400 340.400 C 89.859 340.400,89.600 340.133,89.600 339.576 C 89.600 339.095,89.423 338.862,89.173 339.017 C 88.938 339.162,88.647 338.903,88.526 338.440 C 88.401 337.962,87.982 337.600,87.553 337.600 C 87.139 337.600,86.800 337.324,86.800 336.987 C 86.800 336.651,86.530 336.271,86.200 336.145 C 85.870 336.018,85.600 335.664,85.600 335.357 C 85.600 335.051,85.330 334.800,85.000 334.800 C 84.670 334.800,84.400 334.530,84.400 334.200 C 84.400 333.867,84.044 333.600,83.600 333.600 C 83.067 333.600,82.800 333.333,82.800 332.800 C 82.800 332.356,82.533 332.000,82.200 332.000 C 81.870 332.000,81.600 331.730,81.600 331.400 C 81.600 331.067,81.244 330.800,80.800 330.800 C 80.267 330.800,80.000 330.533,80.000 330.000 C 80.000 329.556,79.733 329.200,79.400 329.200 C 79.070 329.200,78.800 328.930,78.800 328.600 C 78.800 328.181,78.378 328.000,77.400 328.000 L 76.000 328.000 76.000 376.600 " stroke="none" fill="#6314f3" fill-rule="evenodd"></path><path id="path2" d="M76.000 174.000 C 76.000 177.300,76.135 179.979,76.300 179.953 C 77.121 179.823,77.526 180.076,77.726 180.840 C 77.847 181.303,78.138 181.562,78.373 181.417 C 78.623 181.262,78.800 181.495,78.800 181.976 C 78.800 182.429,79.051 182.800,79.357 182.800 C 79.664 182.800,80.018 183.070,80.145 183.400 C 80.271 183.730,80.651 184.000,80.987 184.000 C 81.549 184.000,81.751 184.416,81.500 185.054 C 81.445 185.194,81.817 185.462,82.326 185.651 C 82.835 185.839,83.139 186.175,83.002 186.397 C 82.865 186.618,83.123 186.800,83.576 186.800 C 84.049 186.800,84.400 187.061,84.400 187.413 C 84.400 187.749,84.670 188.129,85.000 188.255 C 85.330 188.382,85.600 188.736,85.600 189.043 C 85.600 189.349,85.960 189.600,86.400 189.600 C 86.840 189.600,87.200 189.851,87.200 190.157 C 87.200 190.464,87.470 190.818,87.800 190.945 C 88.130 191.071,88.400 191.430,88.400 191.741 C 88.400 192.052,88.778 192.406,89.240 192.526 C 89.703 192.647,89.962 192.938,89.817 193.173 C 89.662 193.423,89.895 193.600,90.376 193.600 C 90.829 193.600,91.200 193.771,91.200 193.979 C 91.200 194.530,93.012 196.400,93.546 196.400 C 93.796 196.400,94.000 196.676,94.000 197.013 C 94.000 197.349,94.270 197.729,94.600 197.855 C 94.930 197.982,95.200 198.336,95.200 198.643 C 95.200 198.949,95.571 199.200,96.024 199.200 C 96.477 199.200,96.742 199.371,96.612 199.580 C 96.483 199.789,96.743 200.155,97.189 200.394 C 97.635 200.633,98.000 201.092,98.000 201.414 C 98.000 201.736,98.251 202.000,98.557 202.000 C 98.864 202.000,99.218 202.270,99.345 202.600 C 99.471 202.930,99.851 203.200,100.187 203.200 C 100.539 203.200,100.800 203.551,100.800 204.024 C 100.800 204.477,100.981 204.735,101.203 204.598 C 101.424 204.461,101.711 204.624,101.840 204.959 C 101.969 205.295,102.417 205.679,102.837 205.812 C 103.259 205.946,103.600 206.418,103.600 206.870 C 103.600 207.431,103.788 207.614,104.200 207.455 C 104.608 207.299,104.800 207.477,104.800 208.013 C 104.800 208.453,105.070 208.800,105.413 208.800 C 105.749 208.800,106.129 209.070,106.255 209.400 C 106.382 209.730,106.736 210.000,107.043 210.000 C 107.349 210.000,107.600 210.360,107.600 210.800 C 107.600 211.240,107.851 211.600,108.157 211.600 C 108.464 211.600,108.818 211.870,108.945 212.200 C 109.071 212.530,109.451 212.800,109.787 212.800 C 110.124 212.800,110.400 213.139,110.400 213.553 C 110.400 213.982,110.762 214.401,111.240 214.526 C 111.703 214.647,111.962 214.938,111.817 215.173 C 111.662 215.423,111.895 215.600,112.376 215.600 C 112.933 215.600,113.200 215.859,113.200 216.400 C 113.200 216.844,113.467 217.200,113.800 217.200 C 114.130 217.200,114.400 217.470,114.400 217.800 C 114.400 218.139,114.758 218.400,115.224 218.400 C 115.705 218.400,115.938 218.577,115.783 218.827 C 115.638 219.062,115.897 219.353,116.360 219.474 C 116.838 219.599,117.200 220.018,117.200 220.447 C 117.200 220.861,117.451 221.200,117.757 221.200 C 118.064 221.200,118.418 221.470,118.545 221.800 C 118.671 222.130,119.051 222.400,119.387 222.400 C 119.724 222.400,120.000 222.676,120.000 223.013 C 120.000 223.349,120.270 223.729,120.600 223.855 C 120.930 223.982,121.200 224.336,121.200 224.643 C 121.200 224.949,121.560 225.200,122.000 225.200 C 122.440 225.200,122.800 225.451,122.800 225.757 C 122.800 226.064,123.070 226.418,123.400 226.545 C 123.730 226.671,124.000 227.051,124.000 227.387 C 124.000 227.724,124.270 228.000,124.600 228.000 C 124.930 228.000,125.200 228.270,125.200 228.600 C 125.200 228.933,125.556 229.200,126.000 229.200 C 126.452 229.200,126.800 229.467,126.800 229.813 C 126.800 230.149,127.070 230.529,127.400 230.655 C 127.730 230.782,128.000 231.136,128.000 231.443 C 128.000 231.749,128.360 232.000,128.800 232.000 C 129.240 232.000,129.600 232.251,129.600 232.557 C 129.600 232.864,129.870 233.218,130.200 233.345 C 130.530 233.471,130.800 233.851,130.800 234.187 C 130.800 234.524,131.139 234.800,131.553 234.800 C 131.982 234.800,132.401 235.162,132.526 235.640 C 132.647 236.103,132.938 236.362,133.173 236.217 C 133.423 236.062,133.600 236.295,133.600 236.776 C 133.600 237.329,133.859 237.600,134.387 237.600 C 134.923 237.600,135.101 237.792,134.945 238.200 C 134.785 238.616,134.972 238.800,135.557 238.800 C 136.133 238.800,136.400 239.053,136.400 239.600 C 136.400 240.044,136.667 240.400,137.000 240.400 C 137.330 240.400,137.600 240.670,137.600 241.000 C 137.600 241.333,137.956 241.600,138.400 241.600 C 138.941 241.600,139.200 241.867,139.200 242.424 C 139.200 242.905,139.377 243.138,139.627 242.983 C 139.862 242.838,140.153 243.097,140.274 243.560 C 140.394 244.022,140.748 244.400,141.059 244.400 C 141.370 244.400,141.729 244.670,141.855 245.000 C 141.982 245.330,142.336 245.600,142.643 245.600 C 142.949 245.600,143.200 245.960,143.200 246.400 C 143.200 246.844,143.467 247.200,143.800 247.200 C 144.130 247.200,144.400 247.470,144.400 247.800 C 144.400 248.133,144.756 248.400,145.200 248.400 C 145.733 248.400,146.000 248.667,146.000 249.200 C 146.000 249.644,146.267 250.000,146.600 250.000 C 146.930 250.000,147.200 250.270,147.200 250.600 C 147.200 250.933,147.556 251.200,148.000 251.200 C 148.533 251.200,148.800 251.467,148.800 252.000 C 148.800 252.444,149.067 252.800,149.400 252.800 C 149.730 252.800,150.000 253.070,150.000 253.400 C 150.000 253.730,150.251 254.000,150.557 254.000 C 150.864 254.000,151.218 254.270,151.345 254.600 C 151.471 254.930,151.851 255.200,152.187 255.200 C 152.533 255.200,152.800 255.548,152.800 256.000 C 152.800 256.444,153.067 256.800,153.400 256.800 C 153.730 256.800,154.000 257.070,154.000 257.400 C 154.000 257.733,154.356 258.000,154.800 258.000 C 155.252 258.000,155.600 258.267,155.600 258.613 C 155.600 258.949,155.870 259.329,156.200 259.455 C 156.530 259.582,156.800 259.936,156.800 260.243 C 156.800 260.549,157.139 260.800,157.553 260.800 C 157.982 260.800,158.401 261.162,158.526 261.640 C 158.647 262.103,158.938 262.362,159.173 262.217 C 159.423 262.062,159.600 262.295,159.600 262.776 C 159.600 263.249,159.861 263.600,160.213 263.600 C 160.549 263.600,160.929 263.870,161.055 264.200 C 161.182 264.530,161.536 264.800,161.843 264.800 C 162.149 264.800,162.400 265.160,162.400 265.600 C 162.400 266.040,162.651 266.400,162.957 266.400 C 163.264 266.400,163.618 266.670,163.745 267.000 C 163.871 267.330,164.251 267.600,164.587 267.600 C 164.924 267.600,165.200 267.876,165.200 268.213 C 165.200 268.549,165.470 268.929,165.800 269.055 C 166.130 269.182,166.400 269.536,166.400 269.843 C 166.400 270.149,166.760 270.400,167.200 270.400 C 167.640 270.400,168.000 270.651,168.000 270.957 C 168.000 271.264,168.270 271.618,168.600 271.745 C 168.930 271.871,169.200 272.251,169.200 272.587 C 169.200 272.924,169.470 273.200,169.800 273.200 C 170.130 273.200,170.400 273.470,170.400 273.800 C 170.400 274.133,170.756 274.400,171.200 274.400 C 171.733 274.400,172.000 274.667,172.000 275.200 C 172.000 275.640,172.251 276.000,172.557 276.000 C 172.864 276.000,173.218 276.270,173.345 276.600 C 173.471 276.930,173.851 277.200,174.187 277.200 C 174.539 277.200,174.800 277.551,174.800 278.024 C 174.800 278.505,174.977 278.738,175.227 278.583 C 175.462 278.438,175.753 278.697,175.874 279.160 C 175.999 279.638,176.418 280.000,176.847 280.000 C 177.261 280.000,177.600 280.251,177.600 280.557 C 177.600 280.864,177.870 281.218,178.200 281.345 C 178.530 281.471,178.800 281.851,178.800 282.187 C 178.800 282.524,179.070 282.800,179.400 282.800 C 179.730 282.800,180.000 283.070,180.000 283.400 C 180.000 283.733,180.356 284.000,180.800 284.000 C 181.333 284.000,181.600 284.267,181.600 284.800 C 181.600 285.244,181.867 285.600,182.200 285.600 C 182.530 285.600,182.800 285.870,182.800 286.200 C 182.800 286.533,183.156 286.800,183.600 286.800 C 184.133 286.800,184.400 287.067,184.400 287.600 C 184.400 288.044,184.667 288.400,185.000 288.400 C 185.330 288.400,185.600 288.670,185.600 289.000 C 185.600 289.333,185.956 289.600,186.400 289.600 C 186.844 289.600,187.200 289.867,187.200 290.200 C 187.200 290.530,187.470 290.800,187.800 290.800 C 188.133 290.800,188.400 291.156,188.400 291.600 C 188.400 292.044,188.667 292.400,189.000 292.400 C 189.330 292.400,189.600 292.670,189.600 293.000 C 189.600 293.333,189.956 293.600,190.400 293.600 C 190.852 293.600,191.200 293.867,191.200 294.213 C 191.200 294.549,191.470 294.929,191.800 295.055 C 192.130 295.182,192.400 295.536,192.400 295.843 C 192.400 296.149,192.760 296.400,193.200 296.400 C 193.652 296.400,194.000 296.667,194.000 297.013 C 194.000 297.349,194.270 297.729,194.600 297.855 C 194.930 297.982,195.200 298.336,195.200 298.643 C 195.200 298.949,195.451 299.200,195.757 299.200 C 196.064 299.200,196.418 299.470,196.545 299.800 C 196.671 300.130,197.051 300.400,197.387 300.400 C 197.733 300.400,198.000 300.748,198.000 301.200 C 198.000 301.644,198.267 302.000,198.600 302.000 C 198.930 302.000,199.200 302.270,199.200 302.600 C 199.200 302.933,199.556 303.200,200.000 303.200 C 200.533 303.200,200.800 303.467,200.800 304.000 C 200.800 304.444,201.067 304.800,201.400 304.800 C 201.730 304.800,202.000 305.070,202.000 305.400 C 202.000 305.733,202.356 306.000,202.800 306.000 C 203.252 306.000,203.600 306.267,203.600 306.613 C 203.600 306.949,203.870 307.329,204.200 307.455 C 204.530 307.582,204.800 307.936,204.800 308.243 C 204.800 308.549,205.051 308.800,205.357 308.800 C 205.664 308.800,206.018 309.070,206.145 309.400 C 206.271 309.730,206.651 310.000,206.987 310.000 C 207.333 310.000,207.600 310.348,207.600 310.800 C 207.600 311.244,207.867 311.600,208.200 311.600 C 208.530 311.600,208.800 311.870,208.800 312.200 C 208.800 312.533,209.156 312.800,209.600 312.800 C 210.133 312.800,210.400 313.067,210.400 313.600 C 210.400 314.044,210.667 314.400,211.000 314.400 C 211.330 314.400,211.600 314.670,211.600 315.000 C 211.600 315.333,211.956 315.600,212.400 315.600 C 212.852 315.600,213.200 315.867,213.200 316.213 C 213.200 316.549,213.470 316.929,213.800 317.055 C 214.130 317.182,214.400 317.536,214.400 317.843 C 214.400 318.149,214.651 318.400,214.957 318.400 C 215.264 318.400,215.618 318.670,215.745 319.000 C 215.871 319.330,216.251 319.600,216.587 319.600 C 216.933 319.600,217.200 319.948,217.200 320.400 C 217.200 320.844,217.467 321.200,217.800 321.200 C 218.130 321.200,218.400 321.470,218.400 321.800 C 218.400 322.133,218.756 322.400,219.200 322.400 C 219.733 322.400,220.000 322.667,220.000 323.200 C 220.000 323.644,220.267 324.000,220.600 324.000 C 220.930 324.000,221.200 324.270,221.200 324.600 C 221.200 324.933,221.556 325.200,222.000 325.200 C 222.444 325.200,222.800 325.467,222.800 325.800 C 222.800 326.130,223.070 326.400,223.400 326.400 C 223.733 326.400,224.000 326.756,224.000 327.200 C 224.000 327.644,224.267 328.000,224.600 328.000 C 224.930 328.000,225.200 328.270,225.200 328.600 C 225.200 328.933,225.556 329.200,226.000 329.200 C 226.440 329.200,226.803 329.425,226.807 329.700 C 226.815 330.310,228.542 332.000,229.156 332.000 C 229.400 332.000,229.600 332.360,229.600 332.800 C 229.600 333.244,229.867 333.600,230.200 333.600 C 230.530 333.600,230.800 333.870,230.800 334.200 C 230.800 334.533,231.156 334.800,231.600 334.800 C 232.044 334.800,232.400 335.067,232.400 335.400 C 232.400 335.730,232.670 336.000,233.000 336.000 C 233.333 336.000,233.600 336.356,233.600 336.800 C 233.600 337.244,233.867 337.600,234.200 337.600 C 234.530 337.600,234.800 337.870,234.800 338.200 C 234.800 338.533,235.156 338.800,235.600 338.800 C 236.133 338.800,236.400 339.067,236.400 339.600 C 236.400 340.040,236.651 340.400,236.957 340.400 C 237.264 340.400,237.618 340.670,237.745 341.000 C 237.871 341.330,238.251 341.600,238.587 341.600 C 238.924 341.600,239.200 341.876,239.200 342.213 C 239.200 342.549,239.470 342.929,239.800 343.055 C 240.130 343.182,240.400 343.536,240.400 343.843 C 240.400 344.149,240.676 344.400,241.013 344.400 C 241.349 344.400,241.729 344.670,241.855 345.000 C 241.982 345.330,242.336 345.600,242.643 345.600 C 242.949 345.600,243.200 345.960,243.200 346.400 C 243.200 346.844,243.467 347.200,243.800 347.200 C 244.130 347.200,244.400 347.470,244.400 347.800 C 244.400 348.133,244.756 348.400,245.200 348.400 C 245.733 348.400,246.000 348.667,246.000 349.200 C 246.000 349.644,246.267 350.000,246.600 350.000 C 246.930 350.000,247.200 350.270,247.200 350.600 C 247.200 350.933,247.556 351.200,248.000 351.200 C 248.452 351.200,248.800 351.467,248.800 351.813 C 248.800 352.149,249.070 352.529,249.400 352.655 C 249.730 352.782,250.000 353.136,250.000 353.443 C 250.000 353.749,250.251 354.000,250.557 354.000 C 250.864 354.000,251.218 354.270,251.345 354.600 C 251.471 354.930,251.851 355.200,252.187 355.200 C 252.533 355.200,252.800 355.548,252.800 356.000 C 252.800 356.444,253.067 356.800,253.400 356.800 C 253.730 356.800,254.000 357.070,254.000 357.400 C 254.000 357.733,254.356 358.000,254.800 358.000 C 255.333 358.000,255.600 358.267,255.600 358.800 C 255.600 359.244,255.867 359.600,256.200 359.600 C 256.530 359.600,256.800 359.870,256.800 360.200 C 256.800 360.533,257.156 360.800,257.600 360.800 C 258.044 360.800,258.400 361.067,258.400 361.400 C 258.400 361.730,258.670 362.000,259.000 362.000 C 259.333 362.000,259.600 362.356,259.600 362.800 C 259.600 363.240,259.851 363.600,260.157 363.600 C 260.464 363.600,260.818 363.870,260.945 364.200 C 261.071 364.530,261.451 364.800,261.787 364.800 C 262.124 364.800,262.400 365.076,262.400 365.413 C 262.400 365.749,262.670 366.129,263.000 366.255 C 263.330 366.382,263.600 366.736,263.600 367.043 C 263.600 367.349,263.960 367.600,264.400 367.600 C 264.933 367.600,265.200 367.867,265.200 368.400 C 265.200 368.844,265.467 369.200,265.800 369.200 C 266.130 369.200,266.400 369.470,266.400 369.800 C 266.400 370.133,266.756 370.400,267.200 370.400 C 267.644 370.400,268.000 370.667,268.000 371.000 C 268.000 371.330,268.270 371.600,268.600 371.600 C 268.933 371.600,269.200 371.956,269.200 372.400 C 269.200 372.840,269.451 373.200,269.757 373.200 C 270.064 373.200,270.418 373.470,270.545 373.800 C 270.671 374.130,271.051 374.400,271.387 374.400 C 271.733 374.400,272.000 374.748,272.000 375.200 C 272.000 375.644,272.267 376.000,272.600 376.000 C 272.930 376.000,273.200 376.270,273.200 376.600 C 273.200 376.933,273.556 377.200,274.000 377.200 C 274.452 377.200,274.800 377.467,274.800 377.813 C 274.800 378.149,275.070 378.529,275.400 378.655 C 275.730 378.782,276.000 379.136,276.000 379.443 C 276.000 379.749,276.360 380.000,276.800 380.000 C 277.244 380.000,277.600 380.267,277.600 380.600 C 277.600 380.930,277.870 381.200,278.200 381.200 C 278.533 381.200,278.800 381.556,278.800 382.000 C 278.800 382.444,279.067 382.800,279.400 382.800 C 279.730 382.800,280.000 383.070,280.000 383.400 C 280.000 383.733,280.356 384.000,280.800 384.000 C 281.240 384.000,281.603 384.225,281.607 384.500 C 281.615 385.110,283.342 386.800,283.956 386.800 C 284.200 386.800,284.400 387.051,284.400 387.357 C 284.400 387.664,284.670 388.018,285.000 388.145 C 285.330 388.271,285.600 388.651,285.600 388.987 C 285.600 389.324,285.735 389.579,285.900 389.553 C 286.725 389.422,287.200 389.659,287.200 390.200 C 287.200 390.530,287.470 390.800,287.800 390.800 C 288.341 390.800,288.578 391.275,288.447 392.100 C 288.421 392.265,288.670 392.400,289.000 392.400 C 289.330 392.400,289.600 392.670,289.600 393.000 C 289.600 393.333,289.956 393.600,290.400 393.600 C 290.933 393.600,291.200 393.867,291.200 394.400 C 291.200 394.844,291.467 395.200,291.800 395.200 C 292.130 395.200,292.400 395.368,292.400 395.573 C 292.400 395.778,292.760 396.060,293.200 396.200 C 293.640 396.340,294.000 396.693,294.000 396.984 C 294.000 397.276,294.270 397.618,294.600 397.745 C 294.930 397.871,295.200 398.251,295.200 398.587 C 295.200 398.924,295.476 399.200,295.813 399.200 C 296.149 399.200,296.529 399.470,296.655 399.800 C 296.782 400.130,297.115 400.400,297.396 400.400 C 297.677 400.400,298.006 400.778,298.126 401.240 C 298.247 401.703,298.538 401.962,298.773 401.817 C 299.023 401.662,299.200 401.895,299.200 402.376 C 299.200 402.933,299.459 403.200,300.000 403.200 C 300.544 403.200,300.800 403.467,300.800 404.033 C 300.800 404.492,301.008 404.797,301.261 404.713 C 301.763 404.546,303.600 406.199,303.600 406.818 C 303.600 407.028,303.870 407.200,304.200 407.200 C 304.741 407.200,304.978 407.675,304.847 408.500 C 304.821 408.665,305.025 408.806,305.300 408.813 C 306.090 408.834,307.600 410.262,307.600 410.988 C 307.600 411.353,307.790 411.530,308.027 411.383 C 308.262 411.238,308.553 411.497,308.674 411.960 C 308.799 412.438,309.218 412.800,309.647 412.800 C 310.061 412.800,310.403 413.025,310.407 413.300 C 310.415 413.910,312.142 415.600,312.756 415.600 C 313.000 415.600,313.200 415.870,313.200 416.200 C 313.200 416.530,313.470 416.800,313.800 416.800 C 314.130 416.800,314.400 416.954,314.400 417.142 C 314.400 417.645,316.293 419.600,316.781 419.600 C 317.011 419.600,317.203 419.825,317.207 420.100 C 317.215 420.686,318.931 422.400,319.510 422.400 C 319.728 422.400,319.997 422.747,320.108 423.171 C 320.237 423.661,320.581 423.891,321.055 423.802 C 321.465 423.724,321.935 423.647,322.100 423.631 C 322.265 423.614,322.387 405.735,322.372 383.900 C 322.356 361.380,322.195 344.546,322.000 345.000 C 321.682 345.740,321.651 345.725,321.582 344.800 C 321.529 344.099,321.453 344.009,321.324 344.500 C 321.033 345.613,319.893 345.317,318.628 343.800 C 317.969 343.010,317.093 342.400,316.615 342.400 C 316.130 342.400,314.931 341.548,313.800 340.400 C 312.717 339.300,311.517 338.400,311.134 338.400 C 310.752 338.400,309.827 337.770,309.079 337.000 C 308.331 336.230,307.376 335.600,306.957 335.600 C 306.537 335.600,305.223 334.610,304.036 333.400 C 302.849 332.190,301.579 331.200,301.214 331.200 C 300.849 331.200,300.032 330.660,299.400 330.000 C 298.768 329.340,297.900 328.800,297.472 328.800 C 297.045 328.800,296.100 328.170,295.374 327.400 C 294.648 326.630,293.720 326.000,293.313 326.000 C 292.906 326.000,291.595 325.010,290.400 323.800 C 289.205 322.590,287.900 321.600,287.500 321.600 C 287.100 321.600,286.245 321.060,285.600 320.400 C 284.955 319.740,284.100 319.200,283.700 319.200 C 283.300 319.200,281.995 318.210,280.800 317.000 C 279.605 315.790,278.291 314.800,277.880 314.800 C 277.468 314.800,276.574 314.170,275.892 313.400 C 275.211 312.630,274.309 312.000,273.890 312.000 C 273.470 312.000,272.208 311.100,271.085 310.000 C 269.961 308.900,268.753 308.000,268.399 308.000 C 268.046 308.000,267.146 307.370,266.400 306.600 C 265.654 305.830,264.707 305.200,264.296 305.200 C 263.884 305.200,262.671 304.300,261.600 303.200 C 260.529 302.100,259.316 301.200,258.904 301.200 C 258.493 301.200,257.546 300.570,256.800 299.800 C 256.054 299.030,255.138 298.400,254.765 298.400 C 254.392 298.400,253.182 297.500,252.076 296.400 C 250.971 295.300,249.726 294.400,249.311 294.400 C 248.896 294.400,247.946 293.770,247.200 293.000 C 246.454 292.230,245.563 291.600,245.220 291.600 C 244.877 291.600,243.697 290.706,242.598 289.613 C 241.499 288.520,240.239 287.620,239.797 287.613 C 239.356 287.606,238.416 286.970,237.710 286.200 C 237.003 285.430,236.097 284.800,235.697 284.800 C 235.297 284.800,234.083 283.900,233.000 282.800 C 231.917 281.700,230.685 280.800,230.262 280.800 C 229.840 280.800,228.900 280.170,228.174 279.400 C 227.448 278.630,226.520 278.000,226.112 278.000 C 225.704 278.000,224.483 277.100,223.400 276.000 C 222.312 274.895,221.064 274.000,220.613 274.000 C 220.163 274.000,219.270 273.370,218.628 272.600 C 217.969 271.810,217.093 271.200,216.615 271.200 C 216.130 271.200,214.931 270.348,213.800 269.200 C 212.717 268.100,211.517 267.200,211.134 267.200 C 210.752 267.200,209.827 266.570,209.079 265.800 C 208.331 265.030,207.411 264.400,207.034 264.400 C 206.656 264.400,205.358 263.410,204.148 262.200 C 202.938 260.990,201.633 260.000,201.249 260.000 C 200.864 260.000,200.032 259.460,199.400 258.800 C 198.768 258.140,197.901 257.600,197.474 257.600 C 197.046 257.600,195.746 256.610,194.583 255.400 C 193.420 254.190,192.129 253.200,191.713 253.200 C 191.297 253.200,190.346 252.570,189.600 251.800 C 188.854 251.030,187.937 250.400,187.562 250.400 C 187.187 250.400,185.962 249.500,184.839 248.400 C 183.715 247.300,182.472 246.400,182.076 246.400 C 181.681 246.400,180.746 245.770,180.000 245.000 C 179.254 244.230,178.349 243.600,177.990 243.600 C 177.630 243.600,176.427 242.700,175.315 241.600 C 174.203 240.500,172.956 239.600,172.544 239.600 C 172.132 239.600,171.216 238.970,170.510 238.200 C 169.803 237.430,168.897 236.800,168.497 236.800 C 168.097 236.800,166.883 235.900,165.800 234.800 C 164.669 233.652,163.470 232.800,162.985 232.800 C 162.507 232.800,161.631 232.190,160.972 231.400 C 160.330 230.630,159.437 230.000,158.987 230.000 C 158.536 230.000,157.288 229.105,156.200 228.000 C 155.112 226.895,153.864 226.000,153.413 226.000 C 152.963 226.000,152.070 225.370,151.428 224.600 C 150.769 223.810,149.893 223.200,149.415 223.200 C 148.930 223.200,147.731 222.348,146.600 221.200 C 145.517 220.100,144.345 219.200,143.996 219.200 C 143.647 219.200,142.740 218.576,141.981 217.813 C 141.221 217.050,140.264 216.420,139.853 216.413 C 139.442 216.406,138.197 215.500,137.085 214.400 C 135.973 213.300,134.770 212.400,134.410 212.400 C 134.051 212.400,133.146 211.770,132.400 211.000 C 131.654 210.230,130.723 209.600,130.331 209.600 C 129.939 209.600,128.596 208.610,127.347 207.400 C 126.098 206.190,124.777 205.200,124.413 205.200 C 124.048 205.200,123.232 204.660,122.600 204.000 C 121.968 203.340,121.160 202.800,120.805 202.800 C 120.450 202.800,119.138 201.810,117.888 200.600 C 116.639 199.390,115.288 198.400,114.887 198.400 C 114.485 198.400,113.546 197.770,112.800 197.000 C 112.054 196.230,111.141 195.600,110.772 195.600 C 110.403 195.600,109.228 194.700,108.161 193.600 C 107.094 192.500,105.874 191.600,105.451 191.600 C 105.027 191.600,104.069 190.970,103.321 190.200 C 102.573 189.430,101.648 188.800,101.266 188.800 C 100.883 188.800,99.683 187.900,98.600 186.800 C 97.469 185.652,96.270 184.800,95.785 184.800 C 95.307 184.800,94.431 184.190,93.772 183.400 C 93.130 182.630,92.237 182.000,91.787 182.000 C 91.336 182.000,90.088 181.105,89.000 180.000 C 87.917 178.900,86.703 178.000,86.303 178.000 C 85.903 178.000,84.997 177.370,84.290 176.600 C 83.584 175.830,82.638 175.200,82.189 175.200 C 80.872 175.200,77.217 171.218,76.935 169.474 C 76.416 166.278,76.000 168.292,76.000 174.000 " stroke="none" fill="#9524ec" fill-rule="evenodd"></path><path id="path3" d="M76.006 104.700 C 76.010 119.762,76.147 127.591,76.400 127.200 C 76.613 126.870,76.791 126.800,76.794 127.045 C 76.797 127.289,77.205 127.414,77.700 127.322 C 78.379 127.195,79.138 127.701,80.786 129.377 C 81.989 130.600,83.283 131.600,83.662 131.600 C 84.041 131.600,84.942 132.140,85.664 132.800 C 86.387 133.460,87.259 134.000,87.603 134.000 C 87.946 134.000,89.205 134.990,90.400 136.200 C 91.595 137.410,92.906 138.400,93.313 138.400 C 93.720 138.400,94.648 139.030,95.374 139.800 C 96.100 140.570,97.040 141.200,97.462 141.200 C 97.885 141.200,99.117 142.100,100.200 143.200 C 101.283 144.300,102.504 145.200,102.912 145.200 C 103.320 145.200,104.248 145.830,104.974 146.600 C 105.700 147.370,106.633 148.006,107.047 148.013 C 107.461 148.020,108.699 148.920,109.798 150.013 C 110.897 151.106,112.077 152.000,112.420 152.000 C 112.763 152.000,113.654 152.630,114.400 153.400 C 115.146 154.170,116.127 154.806,116.578 154.813 C 117.030 154.820,118.299 155.720,119.398 156.813 C 120.497 157.906,121.677 158.800,122.020 158.800 C 122.363 158.800,123.254 159.430,124.000 160.200 C 124.746 160.970,125.662 161.600,126.035 161.600 C 126.408 161.600,127.618 162.500,128.724 163.600 C 129.829 164.700,131.074 165.600,131.489 165.600 C 131.904 165.600,132.854 166.230,133.600 167.000 C 134.346 167.770,135.246 168.400,135.599 168.400 C 135.953 168.400,137.161 169.300,138.285 170.400 C 139.408 171.500,140.668 172.400,141.085 172.400 C 141.502 172.400,142.454 173.030,143.200 173.800 C 143.946 174.570,144.843 175.200,145.194 175.200 C 145.544 175.200,146.717 176.100,147.800 177.200 C 148.883 178.300,150.101 179.200,150.505 179.200 C 150.909 179.200,151.888 179.830,152.681 180.600 C 153.474 181.370,154.416 182.000,154.775 182.000 C 155.134 182.000,156.405 182.990,157.600 184.200 C 158.795 185.410,160.100 186.400,160.500 186.400 C 160.900 186.400,161.755 186.940,162.400 187.600 C 163.045 188.260,163.900 188.800,164.300 188.800 C 164.700 188.800,166.005 189.790,167.200 191.000 C 168.395 192.210,169.739 193.208,170.186 193.217 C 170.634 193.226,171.442 193.766,171.981 194.417 C 172.521 195.068,173.331 195.604,173.781 195.609 C 174.232 195.614,175.585 196.603,176.791 197.809 C 177.995 199.014,179.265 200.000,179.612 200.000 C 179.959 200.000,180.854 200.630,181.600 201.400 C 182.346 202.170,183.279 202.800,183.672 202.800 C 184.066 202.800,185.336 203.696,186.494 204.792 C 187.652 205.888,188.880 206.788,189.222 206.792 C 189.563 206.796,190.454 207.430,191.200 208.200 C 191.946 208.970,192.862 209.600,193.235 209.600 C 193.608 209.600,194.818 210.500,195.924 211.600 C 197.029 212.700,198.274 213.600,198.689 213.600 C 199.104 213.600,200.054 214.230,200.800 215.000 C 201.546 215.770,202.437 216.400,202.780 216.400 C 203.123 216.400,204.303 217.294,205.402 218.387 C 206.501 219.480,207.760 220.386,208.200 220.400 C 208.640 220.414,209.621 221.050,210.381 221.813 C 211.140 222.576,212.047 223.200,212.396 223.200 C 212.745 223.200,213.917 224.100,215.000 225.200 C 216.083 226.300,217.301 227.200,217.705 227.200 C 218.109 227.200,219.088 227.830,219.881 228.600 C 220.674 229.370,221.604 230.000,221.949 230.000 C 222.293 230.000,223.485 230.899,224.597 231.997 C 225.863 233.247,227.018 234.027,227.685 234.082 C 228.323 234.135,228.826 234.458,228.938 234.885 C 229.180 235.809,229.972 235.822,229.795 234.900 C 229.722 234.515,229.628 234.110,229.588 234.000 C 229.548 233.890,229.489 233.456,229.457 233.035 C 229.426 232.614,229.150 232.186,228.844 232.083 C 228.510 231.971,228.399 232.074,228.565 232.344 C 228.747 232.637,228.606 232.701,228.155 232.527 C 227.653 232.335,227.556 232.406,227.796 232.794 C 228.019 233.154,227.970 233.228,227.642 233.026 C 227.318 232.826,227.290 232.573,227.558 232.251 C 227.809 231.948,227.816 231.558,227.577 231.187 C 227.247 230.673,227.146 230.674,226.768 231.200 C 226.435 231.662,226.393 231.536,226.588 230.649 C 226.793 229.716,226.723 229.544,226.220 229.737 C 225.879 229.868,225.600 229.790,225.600 229.564 C 225.600 229.338,225.389 229.283,225.132 229.442 C 224.818 229.636,224.747 229.514,224.917 229.072 C 225.081 228.645,224.889 228.262,224.374 227.986 C 223.936 227.752,223.675 227.402,223.795 227.209 C 223.914 227.015,223.604 226.795,223.106 226.719 C 222.608 226.643,222.245 226.360,222.300 226.091 C 222.392 225.639,221.884 225.421,221.070 225.563 C 220.889 225.594,220.855 225.435,220.994 225.210 C 221.133 224.984,221.124 224.601,220.974 224.357 C 220.783 224.049,220.596 224.079,220.356 224.457 C 220.086 224.883,220.000 224.850,219.956 224.300 C 219.925 223.915,219.855 223.420,219.800 223.200 C 219.745 222.980,219.678 222.676,219.650 222.524 C 219.623 222.371,219.330 222.596,218.999 223.024 C 218.416 223.776,218.406 223.777,218.667 223.034 C 218.868 222.462,218.802 222.352,218.405 222.597 C 218.007 222.843,217.930 222.710,218.100 222.063 C 218.253 221.475,218.142 221.200,217.750 221.200 C 217.434 221.200,217.071 220.930,216.945 220.600 C 216.818 220.270,216.363 220.000,215.934 220.000 C 215.476 220.000,215.263 219.821,215.420 219.568 C 215.567 219.330,215.304 218.868,214.837 218.541 C 214.369 218.213,214.098 217.766,214.233 217.546 C 214.372 217.322,214.155 217.202,213.740 217.273 C 213.222 217.362,212.960 217.121,212.868 216.469 C 212.781 215.857,212.542 215.613,212.168 215.757 C 211.836 215.884,211.600 215.731,211.600 215.387 C 211.600 214.849,211.107 214.617,210.270 214.763 C 210.089 214.794,210.050 214.642,210.185 214.425 C 210.319 214.207,210.063 213.663,209.615 213.215 C 209.167 212.767,208.800 212.220,208.800 212.000 C 208.800 211.780,208.549 211.600,208.243 211.600 C 207.936 211.600,207.582 211.330,207.455 211.000 C 207.329 210.670,206.949 210.400,206.613 210.400 C 206.261 210.400,206.000 210.049,206.000 209.576 C 206.000 209.123,205.829 208.858,205.620 208.988 C 205.411 209.117,205.045 208.857,204.806 208.411 C 204.567 207.965,204.129 207.600,203.833 207.600 C 203.536 207.600,203.194 207.222,203.074 206.760 C 202.953 206.297,202.662 206.038,202.427 206.183 C 202.176 206.339,202.000 206.099,202.000 205.600 C 202.000 205.134,201.840 204.851,201.645 204.972 C 201.205 205.244,200.308 204.225,200.670 203.863 C 200.815 203.718,200.543 203.600,200.067 203.600 C 199.467 203.600,199.200 203.354,199.200 202.800 C 199.200 202.356,198.933 202.000,198.600 202.000 C 198.270 202.000,198.000 201.730,198.000 201.400 C 198.000 201.067,197.644 200.800,197.200 200.800 C 196.760 200.800,196.397 200.575,196.393 200.300 C 196.385 199.690,194.658 198.000,194.044 198.000 C 193.800 198.000,193.600 197.629,193.600 197.176 C 193.600 196.695,193.423 196.462,193.173 196.617 C 192.938 196.762,192.647 196.503,192.526 196.040 C 192.406 195.578,192.136 195.200,191.926 195.200 C 191.717 195.200,190.952 194.570,190.226 193.800 C 189.500 193.030,188.707 192.400,188.465 192.400 C 188.223 192.400,188.129 192.130,188.255 191.800 C 188.415 191.384,188.228 191.200,187.643 191.200 C 187.153 191.200,186.800 190.944,186.800 190.587 C 186.800 190.251,186.530 189.871,186.200 189.745 C 185.870 189.618,185.600 189.285,185.600 189.004 C 185.600 188.723,185.240 188.399,184.800 188.284 C 184.360 188.169,184.000 187.788,184.000 187.437 C 184.000 187.087,183.730 186.800,183.400 186.800 C 183.070 186.800,182.800 186.530,182.800 186.200 C 182.800 185.861,182.442 185.600,181.976 185.600 C 181.495 185.600,181.262 185.423,181.417 185.173 C 181.562 184.938,181.303 184.647,180.840 184.526 C 180.362 184.401,180.000 183.982,180.000 183.553 C 180.000 183.139,179.730 182.800,179.400 182.800 C 179.070 182.800,178.800 182.530,178.800 182.200 C 178.800 181.867,178.444 181.600,178.000 181.600 C 177.467 181.600,177.200 181.333,177.200 180.800 C 177.200 180.356,176.933 180.000,176.600 180.000 C 176.270 180.000,176.000 179.719,176.000 179.376 C 176.000 179.033,175.840 178.851,175.645 178.972 C 175.265 179.207,174.490 178.458,174.434 177.800 C 174.415 177.580,174.265 177.397,174.100 177.394 C 173.484 177.381,172.795 176.732,173.017 176.372 C 173.144 176.168,172.967 176.000,172.624 176.000 C 172.281 176.000,172.000 175.730,172.000 175.400 C 172.000 175.067,171.644 174.800,171.200 174.800 C 170.683 174.800,170.400 174.533,170.400 174.047 C 170.400 173.618,170.038 173.199,169.560 173.074 C 169.097 172.953,168.838 172.662,168.983 172.427 C 169.136 172.180,168.919 172.000,168.470 172.000 C 168.017 172.000,167.602 171.650,167.474 171.160 C 167.353 170.697,167.062 170.438,166.827 170.583 C 166.577 170.738,166.400 170.505,166.400 170.024 C 166.400 169.558,166.139 169.200,165.800 169.200 C 165.470 169.200,165.200 168.942,165.200 168.627 C 165.200 168.312,164.840 167.940,164.400 167.800 C 163.960 167.660,163.600 167.288,163.600 166.973 C 163.600 166.658,163.324 166.400,162.987 166.400 C 162.651 166.400,162.271 166.130,162.145 165.800 C 162.018 165.470,161.664 165.200,161.357 165.200 C 161.051 165.200,160.800 164.840,160.800 164.400 C 160.800 163.956,160.533 163.600,160.200 163.600 C 159.870 163.600,159.600 163.351,159.600 163.047 C 159.600 162.742,159.240 162.399,158.800 162.284 C 158.360 162.169,158.000 161.788,158.000 161.437 C 158.000 161.087,157.730 160.800,157.400 160.800 C 157.070 160.800,156.800 160.530,156.800 160.200 C 156.800 159.870,156.530 159.600,156.200 159.600 C 155.870 159.600,155.600 159.330,155.600 159.000 C 155.600 158.459,155.125 158.222,154.300 158.353 C 154.135 158.379,154.000 158.040,154.000 157.600 C 154.000 157.160,153.749 156.800,153.443 156.800 C 153.136 156.800,152.782 156.530,152.655 156.200 C 152.529 155.870,152.149 155.600,151.813 155.600 C 151.476 155.600,151.200 155.324,151.200 154.987 C 151.200 154.651,150.930 154.271,150.600 154.145 C 150.270 154.018,150.000 153.664,150.000 153.357 C 150.000 153.051,149.640 152.800,149.200 152.800 C 148.760 152.800,148.421 152.665,148.447 152.500 C 148.578 151.675,148.341 151.200,147.800 151.200 C 147.470 151.200,147.200 150.930,147.200 150.600 C 147.200 150.270,146.930 150.000,146.600 150.000 C 146.270 150.000,146.000 149.730,146.000 149.400 C 146.000 149.067,145.644 148.800,145.200 148.800 C 144.667 148.800,144.400 148.533,144.400 148.000 C 144.400 147.560,144.149 147.200,143.843 147.200 C 143.536 147.200,143.182 146.930,143.055 146.600 C 142.929 146.270,142.549 146.000,142.213 146.000 C 141.867 146.000,141.600 145.652,141.600 145.200 C 141.600 144.756,141.333 144.400,141.000 144.400 C 140.670 144.400,140.400 144.130,140.400 143.800 C 140.400 143.470,140.142 143.200,139.827 143.200 C 139.512 143.200,139.140 142.840,139.000 142.400 C 138.860 141.960,138.488 141.600,138.173 141.600 C 137.858 141.600,137.600 141.330,137.600 141.000 C 137.600 140.670,137.349 140.400,137.043 140.400 C 136.736 140.400,136.382 140.130,136.255 139.800 C 136.129 139.470,135.749 139.200,135.413 139.200 C 135.067 139.200,134.800 138.852,134.800 138.400 C 134.800 137.956,134.533 137.600,134.200 137.600 C 133.870 137.600,133.600 137.330,133.600 137.000 C 133.600 136.667,133.244 136.400,132.800 136.400 C 132.267 136.400,132.000 136.133,132.000 135.600 C 132.000 135.156,131.733 134.800,131.400 134.800 C 131.070 134.800,130.800 134.530,130.800 134.200 C 130.800 133.870,130.620 133.600,130.400 133.600 C 130.180 133.600,129.280 132.880,128.400 132.000 C 127.520 131.120,126.800 130.220,126.800 130.000 C 126.800 129.780,126.440 129.600,126.000 129.600 C 125.548 129.600,125.200 129.333,125.200 128.987 C 125.200 128.651,124.930 128.271,124.600 128.145 C 124.270 128.018,124.000 127.664,124.000 127.357 C 124.000 127.051,123.640 126.800,123.200 126.800 C 122.667 126.800,122.400 126.533,122.400 126.000 C 122.400 125.556,122.133 125.200,121.800 125.200 C 121.470 125.200,121.200 124.951,121.200 124.647 C 121.200 124.342,120.822 123.994,120.360 123.874 C 119.898 123.753,119.630 123.475,119.766 123.256 C 119.901 123.037,119.649 122.743,119.206 122.602 C 118.763 122.461,118.400 122.088,118.400 121.773 C 118.400 121.458,118.130 121.200,117.800 121.200 C 117.470 121.200,117.200 120.930,117.200 120.600 C 117.200 120.267,116.844 120.000,116.400 120.000 C 115.948 120.000,115.600 119.733,115.600 119.387 C 115.600 119.051,115.330 118.671,115.000 118.545 C 114.670 118.418,114.400 118.064,114.400 117.757 C 114.400 117.451,114.040 117.200,113.600 117.200 C 113.067 117.200,112.800 116.933,112.800 116.400 C 112.800 115.960,112.549 115.600,112.243 115.600 C 111.936 115.600,111.582 115.330,111.455 115.000 C 111.329 114.670,110.930 114.400,110.570 114.400 C 110.172 114.400,109.999 114.180,110.130 113.839 C 110.257 113.506,110.032 113.197,109.572 113.077 C 109.148 112.966,108.800 112.588,108.800 112.237 C 108.800 111.887,108.549 111.600,108.243 111.600 C 107.936 111.600,107.582 111.330,107.455 111.000 C 107.329 110.670,106.949 110.400,106.613 110.400 C 106.267 110.400,106.000 110.052,106.000 109.600 C 106.000 109.156,105.733 108.800,105.400 108.800 C 105.070 108.800,104.800 108.551,104.800 108.247 C 104.800 107.942,104.440 107.599,104.000 107.484 C 103.560 107.369,103.200 106.988,103.200 106.637 C 103.200 106.287,103.020 106.000,102.800 106.000 C 102.281 106.000,100.800 104.519,100.800 104.000 C 100.800 103.780,100.440 103.600,100.000 103.600 C 99.467 103.600,99.200 103.333,99.200 102.800 C 99.200 102.360,98.949 102.000,98.643 102.000 C 98.336 102.000,97.982 101.730,97.855 101.400 C 97.729 101.070,97.349 100.800,97.013 100.800 C 96.661 100.800,96.400 100.449,96.400 99.976 C 96.400 99.495,96.223 99.262,95.973 99.417 C 95.738 99.562,95.447 99.303,95.326 98.840 C 95.206 98.378,94.956 98.000,94.772 98.000 C 94.310 98.000,92.400 96.052,92.400 95.582 C 92.400 95.372,92.130 95.200,91.800 95.200 C 91.470 95.200,91.200 94.930,91.200 94.600 C 91.200 94.267,90.844 94.000,90.400 94.000 C 89.960 94.000,89.597 93.775,89.593 93.500 C 89.585 92.890,87.858 91.200,87.244 91.200 C 87.000 91.200,86.800 90.840,86.800 90.400 C 86.800 89.956,86.533 89.600,86.200 89.600 C 85.870 89.600,85.600 89.330,85.600 89.000 C 85.600 88.670,85.336 88.400,85.014 88.400 C 84.692 88.400,84.233 88.035,83.994 87.589 C 83.755 87.143,83.389 86.883,83.180 87.012 C 82.971 87.142,82.800 86.877,82.800 86.424 C 82.800 85.971,82.549 85.600,82.243 85.600 C 81.936 85.600,81.582 85.330,81.455 85.000 C 81.329 84.670,80.949 84.400,80.613 84.400 C 80.276 84.400,79.997 84.175,79.993 83.900 C 79.981 83.040,78.135 81.600,77.044 81.600 L 76.000 81.600 76.006 104.700 M76.124 130.200 C 76.126 131.520,76.201 132.012,76.290 131.293 C 76.379 130.574,76.377 129.494,76.286 128.893 C 76.195 128.292,76.122 128.880,76.124 130.200 M229.871 234.100 C 230.046 234.375,230.192 235.050,230.195 235.600 C 230.198 236.320,230.444 236.635,231.071 236.724 C 231.550 236.792,232.157 237.107,232.420 237.424 C 232.683 237.741,233.096 238.000,233.338 238.000 C 233.580 238.000,233.378 237.720,232.889 237.377 C 232.400 237.035,232.000 236.415,232.000 236.001 C 232.000 235.088,231.348 234.598,231.066 235.298 C 230.954 235.574,230.849 235.305,230.832 234.700 C 230.811 233.984,230.582 233.600,230.176 233.600 C 229.775 233.600,229.666 233.778,229.871 234.100 M233.677 238.188 C 233.011 238.555,232.907 238.756,233.306 238.908 C 233.609 239.025,234.071 238.778,234.332 238.360 C 234.593 237.942,234.760 237.618,234.703 237.639 C 234.647 237.661,234.185 237.908,233.677 238.188 M239.562 243.900 C 239.267 244.285,239.183 244.468,239.374 244.306 C 239.565 244.145,239.947 244.321,240.223 244.699 C 240.661 245.297,240.698 245.246,240.516 244.292 C 240.269 243.003,240.254 242.996,239.562 243.900 M243.422 247.888 C 243.276 248.266,243.288 248.446,243.446 248.287 C 243.605 248.128,244.110 248.314,244.568 248.699 C 245.388 249.390,245.390 249.388,244.699 248.568 C 244.314 248.110,244.119 247.615,244.266 247.468 C 244.413 247.320,244.343 247.200,244.109 247.200 C 243.876 247.200,243.567 247.510,243.422 247.888 " stroke="none" fill="#be31e4" fill-rule="evenodd"></path><path id="path4" d="M76.341 127.220 C 75.944 128.336,75.916 168.000,76.312 168.000 C 76.523 168.000,76.803 168.663,76.935 169.474 C 77.217 171.218,80.872 175.200,82.189 175.200 C 82.638 175.200,83.584 175.830,84.290 176.600 C 84.997 177.370,85.903 178.000,86.303 178.000 C 86.703 178.000,87.917 178.900,89.000 180.000 C 90.088 181.105,91.336 182.000,91.787 182.000 C 92.237 182.000,93.130 182.630,93.772 183.400 C 94.431 184.190,95.307 184.800,95.785 184.800 C 96.270 184.800,97.469 185.652,98.600 186.800 C 99.683 187.900,100.883 188.800,101.266 188.800 C 101.648 188.800,102.573 189.430,103.321 190.200 C 104.069 190.970,105.027 191.600,105.451 191.600 C 105.874 191.600,107.094 192.500,108.161 193.600 C 109.228 194.700,110.403 195.600,110.772 195.600 C 111.141 195.600,112.054 196.230,112.800 197.000 C 113.546 197.770,114.485 198.400,114.887 198.400 C 115.288 198.400,116.639 199.390,117.888 200.600 C 119.138 201.810,120.450 202.800,120.805 202.800 C 121.160 202.800,121.968 203.340,122.600 204.000 C 123.232 204.660,124.048 205.200,124.413 205.200 C 124.777 205.200,126.098 206.190,127.347 207.400 C 128.596 208.610,129.939 209.600,130.331 209.600 C 130.723 209.600,131.654 210.230,132.400 211.000 C 133.146 211.770,134.051 212.400,134.410 212.400 C 134.770 212.400,135.973 213.300,137.085 214.400 C 138.197 215.500,139.442 216.406,139.853 216.413 C 140.264 216.420,141.221 217.050,141.981 217.813 C 142.740 218.576,143.647 219.200,143.996 219.200 C 144.345 219.200,145.517 220.100,146.600 221.200 C 147.731 222.348,148.930 223.200,149.415 223.200 C 149.893 223.200,150.769 223.810,151.428 224.600 C 152.070 225.370,152.963 226.000,153.413 226.000 C 153.864 226.000,155.112 226.895,156.200 228.000 C 157.288 229.105,158.536 230.000,158.987 230.000 C 159.437 230.000,160.330 230.630,160.972 231.400 C 161.631 232.190,162.507 232.800,162.985 232.800 C 163.470 232.800,164.669 233.652,165.800 234.800 C 166.883 235.900,168.097 236.800,168.497 236.800 C 168.897 236.800,169.803 237.430,170.510 238.200 C 171.216 238.970,172.132 239.600,172.544 239.600 C 172.956 239.600,174.203 240.500,175.315 241.600 C 176.427 242.700,177.630 243.600,177.990 243.600 C 178.349 243.600,179.254 244.230,180.000 245.000 C 180.746 245.770,181.681 246.400,182.076 246.400 C 182.472 246.400,183.715 247.300,184.839 248.400 C 185.962 249.500,187.187 250.400,187.562 250.400 C 187.937 250.400,188.854 251.030,189.600 251.800 C 190.346 252.570,191.297 253.200,191.713 253.200 C 192.129 253.200,193.420 254.190,194.583 255.400 C 195.746 256.610,197.046 257.600,197.474 257.600 C 197.901 257.600,198.768 258.140,199.400 258.800 C 200.032 259.460,200.864 260.000,201.249 260.000 C 201.633 260.000,202.938 260.990,204.148 262.200 C 205.358 263.410,206.656 264.400,207.034 264.400 C 207.411 264.400,208.331 265.030,209.079 265.800 C 209.827 266.570,210.752 267.200,211.134 267.200 C 211.517 267.200,212.717 268.100,213.800 269.200 C 214.931 270.348,216.130 271.200,216.615 271.200 C 217.093 271.200,217.969 271.810,218.628 272.600 C 219.270 273.370,220.163 274.000,220.613 274.000 C 221.064 274.000,222.312 274.895,223.400 276.000 C 224.483 277.100,225.704 278.000,226.112 278.000 C 226.520 278.000,227.448 278.630,228.174 279.400 C 228.900 280.170,229.840 280.800,230.262 280.800 C 230.685 280.800,231.917 281.700,233.000 282.800 C 234.083 283.900,235.297 284.800,235.697 284.800 C 236.097 284.800,237.003 285.430,237.710 286.200 C 238.416 286.970,239.356 287.606,239.797 287.613 C 240.239 287.620,241.499 288.520,242.598 289.613 C 243.697 290.706,244.877 291.600,245.220 291.600 C 245.563 291.600,246.454 292.230,247.200 293.000 C 247.946 293.770,248.896 294.400,249.311 294.400 C 249.726 294.400,250.971 295.300,252.076 296.400 C 253.182 297.500,254.392 298.400,254.765 298.400 C 255.138 298.400,256.054 299.030,256.800 299.800 C 257.546 300.570,258.493 301.200,258.904 301.200 C 259.316 301.200,260.529 302.100,261.600 303.200 C 262.671 304.300,263.884 305.200,264.296 305.200 C 264.707 305.200,265.654 305.830,266.400 306.600 C 267.146 307.370,268.046 308.000,268.399 308.000 C 268.753 308.000,269.961 308.900,271.085 310.000 C 272.208 311.100,273.470 312.000,273.890 312.000 C 274.309 312.000,275.211 312.630,275.892 313.400 C 276.574 314.170,277.468 314.800,277.880 314.800 C 278.291 314.800,279.605 315.790,280.800 317.000 C 281.995 318.210,283.300 319.200,283.700 319.200 C 284.100 319.200,284.955 319.740,285.600 320.400 C 286.245 321.060,287.100 321.600,287.500 321.600 C 287.900 321.600,289.205 322.590,290.400 323.800 C 291.595 325.010,292.906 326.000,293.313 326.000 C 293.720 326.000,294.648 326.630,295.374 327.400 C 296.100 328.170,297.045 328.800,297.472 328.800 C 297.900 328.800,298.768 329.340,299.400 330.000 C 300.032 330.660,300.849 331.200,301.214 331.200 C 301.579 331.200,302.849 332.190,304.036 333.400 C 305.223 334.610,306.537 335.600,306.957 335.600 C 307.376 335.600,308.331 336.230,309.079 337.000 C 309.827 337.770,310.752 338.400,311.134 338.400 C 311.517 338.400,312.717 339.300,313.800 340.400 C 314.931 341.548,316.130 342.400,316.615 342.400 C 317.093 342.400,317.969 343.010,318.628 343.800 C 319.893 345.317,321.033 345.613,321.324 344.500 C 321.453 344.009,321.529 344.099,321.582 344.800 C 321.651 345.725,321.682 345.740,322.000 345.000 C 322.667 343.448,322.482 325.200,321.800 325.200 C 321.470 325.200,321.200 324.930,321.200 324.600 C 321.200 324.261,320.842 324.000,320.376 324.000 C 319.923 324.000,319.658 323.829,319.788 323.620 C 319.917 323.411,319.657 323.045,319.211 322.806 C 318.765 322.567,318.400 322.108,318.400 321.786 C 318.400 321.464,318.130 321.200,317.800 321.200 C 317.470 321.200,317.200 320.913,317.200 320.563 C 317.200 320.212,316.840 319.831,316.400 319.716 C 315.960 319.601,315.600 319.258,315.600 318.953 C 315.600 318.649,315.330 318.400,315.000 318.400 C 314.670 318.400,314.400 318.151,314.400 317.847 C 314.400 317.542,314.040 317.199,313.600 317.084 C 313.160 316.969,312.800 316.588,312.800 316.237 C 312.800 315.887,312.530 315.600,312.200 315.600 C 311.870 315.600,311.600 315.330,311.600 315.000 C 311.600 314.670,311.246 314.400,310.813 314.400 C 310.264 314.400,310.098 314.211,310.265 313.776 C 310.424 313.359,310.221 313.078,309.652 312.929 C 309.183 312.807,308.800 312.458,308.800 312.153 C 308.800 311.849,308.551 311.600,308.247 311.600 C 307.942 311.600,307.593 311.217,307.471 310.748 C 307.322 310.179,307.041 309.976,306.624 310.135 C 306.281 310.267,306.000 310.174,306.000 309.928 C 306.000 309.682,305.370 308.869,304.600 308.121 C 303.830 307.373,303.200 306.571,303.200 306.338 C 303.200 306.105,302.930 306.018,302.600 306.145 C 302.192 306.301,302.000 306.123,302.000 305.587 C 302.000 305.154,301.751 304.800,301.447 304.800 C 301.142 304.800,300.794 304.422,300.674 303.960 C 300.544 303.463,300.268 303.234,300.000 303.400 C 299.732 303.566,299.456 303.337,299.326 302.840 C 299.206 302.378,298.858 302.000,298.553 302.000 C 298.249 302.000,298.000 301.730,298.000 301.400 C 298.000 301.067,297.644 300.800,297.200 300.800 C 296.667 300.800,296.400 300.533,296.400 300.000 C 296.400 299.556,296.133 299.200,295.800 299.200 C 295.470 299.200,295.200 298.930,295.200 298.600 C 295.200 298.270,294.951 298.000,294.647 298.000 C 294.342 298.000,293.994 297.622,293.874 297.160 C 293.744 296.663,293.468 296.434,293.200 296.600 C 292.934 296.764,292.659 296.548,292.536 296.077 C 292.421 295.635,291.965 295.179,291.523 295.064 C 291.081 294.948,290.838 294.662,290.983 294.427 C 291.138 294.177,290.905 294.000,290.424 294.000 C 289.867 294.000,289.600 293.741,289.600 293.200 C 289.600 292.760,289.349 292.400,289.043 292.400 C 288.736 292.400,288.382 292.130,288.255 291.800 C 288.129 291.470,287.749 291.200,287.413 291.200 C 287.076 291.200,286.800 290.861,286.800 290.447 C 286.800 290.018,286.438 289.599,285.960 289.474 C 285.497 289.353,285.238 289.062,285.383 288.827 C 285.528 288.592,285.367 288.400,285.024 288.400 C 284.681 288.400,284.400 288.142,284.400 287.827 C 284.400 287.512,284.040 287.140,283.600 287.000 C 283.160 286.860,282.800 286.488,282.800 286.173 C 282.800 285.858,282.542 285.600,282.227 285.600 C 281.912 285.600,281.539 285.237,281.398 284.794 C 281.257 284.351,280.963 284.099,280.744 284.234 C 280.525 284.370,280.247 284.102,280.126 283.640 C 280.006 283.178,279.658 282.800,279.353 282.800 C 279.049 282.800,278.800 282.530,278.800 282.200 C 278.800 281.867,278.444 281.600,278.000 281.600 C 277.548 281.600,277.200 281.333,277.200 280.987 C 277.200 280.651,276.930 280.271,276.600 280.145 C 276.270 280.018,276.000 279.664,276.000 279.357 C 276.000 279.051,275.742 278.800,275.427 278.800 C 275.112 278.800,274.740 278.440,274.600 278.000 C 274.460 277.560,274.088 277.200,273.773 277.200 C 273.458 277.200,273.200 276.951,273.200 276.647 C 273.200 276.342,272.822 275.994,272.360 275.874 C 271.898 275.753,271.622 275.488,271.747 275.285 C 271.872 275.083,271.531 274.715,270.987 274.467 C 270.444 274.220,270.000 273.833,270.000 273.609 C 270.000 273.384,269.736 273.200,269.413 273.200 C 269.055 273.200,268.915 272.965,269.055 272.600 C 269.215 272.184,269.028 272.000,268.443 272.000 C 267.867 272.000,267.600 271.747,267.600 271.200 C 267.600 270.756,267.333 270.400,267.000 270.400 C 266.670 270.400,266.400 270.151,266.400 269.847 C 266.400 269.542,266.035 269.198,265.589 269.081 C 265.142 268.964,264.827 268.628,264.889 268.334 C 264.951 268.035,264.692 267.824,264.300 267.856 C 263.861 267.890,263.600 267.630,263.600 267.156 C 263.600 266.671,263.318 266.400,262.813 266.400 C 262.345 266.400,262.103 266.196,262.218 265.897 C 262.324 265.621,262.004 265.209,261.505 264.983 C 261.007 264.756,260.645 264.352,260.700 264.085 C 260.755 263.818,260.421 263.600,259.957 263.600 C 259.375 263.600,259.185 263.416,259.343 263.005 C 259.468 262.677,259.443 262.429,259.286 262.452 C 258.427 262.580,258.051 262.331,258.265 261.776 C 258.424 261.359,258.221 261.078,257.652 260.929 C 257.183 260.807,256.800 260.458,256.800 260.153 C 256.800 259.849,256.596 259.600,256.346 259.600 C 255.800 259.600,254.000 257.725,254.000 257.156 C 254.000 256.934,253.840 256.851,253.645 256.972 C 253.205 257.244,252.308 256.225,252.670 255.863 C 252.815 255.718,252.543 255.600,252.067 255.600 C 251.292 255.600,251.011 255.200,251.153 254.300 C 251.179 254.135,250.930 254.000,250.600 254.000 C 250.270 254.000,250.000 253.730,250.000 253.400 C 250.000 253.070,249.775 252.797,249.500 252.793 C 248.890 252.785,247.200 251.058,247.200 250.444 C 247.200 250.200,246.860 250.000,246.444 250.000 C 245.988 250.000,245.711 249.740,245.744 249.343 C 245.775 248.982,245.550 248.598,245.244 248.491 C 244.859 248.356,244.790 248.465,245.021 248.848 C 245.303 249.315,245.250 249.316,244.681 248.855 C 244.311 248.555,244.131 248.105,244.281 247.855 C 244.431 247.605,244.245 247.650,243.868 247.957 C 243.274 248.438,243.213 248.431,243.414 247.908 C 243.639 247.321,242.673 246.000,242.018 246.000 C 241.839 246.000,241.599 245.640,241.484 245.200 C 241.369 244.760,241.067 244.400,240.814 244.400 C 240.560 244.400,240.467 244.625,240.606 244.900 C 240.745 245.175,240.603 245.088,240.290 244.706 C 239.977 244.325,239.565 244.145,239.374 244.306 C 239.183 244.468,239.255 244.300,239.534 243.934 C 239.964 243.369,239.916 243.227,239.221 243.007 C 238.769 242.863,238.400 242.568,238.400 242.349 C 238.400 242.131,238.608 242.081,238.862 242.238 C 239.141 242.411,239.215 242.348,239.049 242.079 C 238.898 241.835,238.510 241.736,238.187 241.860 C 237.785 242.014,237.600 241.819,237.600 241.243 C 237.600 240.760,237.343 240.400,237.000 240.400 C 236.670 240.400,236.400 240.130,236.400 239.800 C 236.400 239.470,236.209 239.200,235.976 239.200 C 235.743 239.200,235.652 239.361,235.774 239.558 C 235.896 239.755,235.736 240.016,235.418 240.138 C 235.044 240.281,234.915 240.166,235.051 239.811 C 235.402 238.898,234.443 237.532,233.632 237.790 C 233.200 237.927,232.699 237.735,232.376 237.309 C 231.918 236.705,231.921 236.674,232.399 237.100 C 232.708 237.375,233.119 237.600,233.313 237.600 C 233.508 237.600,233.590 237.375,233.497 237.100 C 233.400 236.814,232.657 236.600,231.764 236.600 C 230.332 236.600,230.200 236.509,230.200 235.520 C 230.200 234.926,229.949 234.206,229.641 233.920 C 229.177 233.488,229.141 233.501,229.430 234.000 C 229.942 234.883,229.985 235.600,229.527 235.600 C 229.306 235.600,229.041 235.278,228.938 234.885 C 228.826 234.458,228.323 234.135,227.685 234.082 C 227.018 234.027,225.863 233.247,224.597 231.997 C 223.485 230.899,222.293 230.000,221.949 230.000 C 221.604 230.000,220.674 229.370,219.881 228.600 C 219.088 227.830,218.109 227.200,217.705 227.200 C 217.301 227.200,216.083 226.300,215.000 225.200 C 213.917 224.100,212.745 223.200,212.396 223.200 C 212.047 223.200,211.140 222.576,210.381 221.813 C 209.621 221.050,208.640 220.414,208.200 220.400 C 207.760 220.386,206.501 219.480,205.402 218.387 C 204.303 217.294,203.123 216.400,202.780 216.400 C 202.437 216.400,201.546 215.770,200.800 215.000 C 200.054 214.230,199.104 213.600,198.689 213.600 C 198.274 213.600,197.029 212.700,195.924 211.600 C 194.818 210.500,193.608 209.600,193.235 209.600 C 192.862 209.600,191.946 208.970,191.200 208.200 C 190.454 207.430,189.563 206.796,189.222 206.792 C 188.880 206.788,187.652 205.888,186.494 204.792 C 185.336 203.696,184.066 202.800,183.672 202.800 C 183.279 202.800,182.346 202.170,181.600 201.400 C 180.854 200.630,179.959 200.000,179.612 200.000 C 179.265 200.000,177.995 199.014,176.791 197.809 C 175.585 196.603,174.232 195.614,173.781 195.609 C 173.331 195.604,172.521 195.068,171.981 194.417 C 171.442 193.766,170.634 193.226,170.186 193.217 C 169.739 193.208,168.395 192.210,167.200 191.000 C 166.005 189.790,164.700 188.800,164.300 188.800 C 163.900 188.800,163.045 188.260,162.400 187.600 C 161.755 186.940,160.900 186.400,160.500 186.400 C 160.100 186.400,158.795 185.410,157.600 184.200 C 156.405 182.990,155.134 182.000,154.775 182.000 C 154.416 182.000,153.474 181.370,152.681 180.600 C 151.888 179.830,150.909 179.200,150.505 179.200 C 150.101 179.200,148.883 178.300,147.800 177.200 C 146.717 176.100,145.544 175.200,145.194 175.200 C 144.843 175.200,143.946 174.570,143.200 173.800 C 142.454 173.030,141.502 172.400,141.085 172.400 C 140.668 172.400,139.408 171.500,138.285 170.400 C 137.161 169.300,135.953 168.400,135.599 168.400 C 135.246 168.400,134.346 167.770,133.600 167.000 C 132.854 166.230,131.904 165.600,131.489 165.600 C 131.074 165.600,129.829 164.700,128.724 163.600 C 127.618 162.500,126.408 161.600,126.035 161.600 C 125.662 161.600,124.746 160.970,124.000 160.200 C 123.254 159.430,122.363 158.800,122.020 158.800 C 121.677 158.800,120.497 157.906,119.398 156.813 C 118.299 155.720,117.030 154.820,116.578 154.813 C 116.127 154.806,115.146 154.170,114.400 153.400 C 113.654 152.630,112.763 152.000,112.420 152.000 C 112.077 152.000,110.897 151.106,109.798 150.013 C 108.699 148.920,107.461 148.020,107.047 148.013 C 106.633 148.006,105.700 147.370,104.974 146.600 C 104.248 145.830,103.320 145.200,102.912 145.200 C 102.504 145.200,101.283 144.300,100.200 143.200 C 99.117 142.100,97.885 141.200,97.462 141.200 C 97.040 141.200,96.100 140.570,95.374 139.800 C 94.648 139.030,93.720 138.400,93.313 138.400 C 92.906 138.400,91.595 137.410,90.400 136.200 C 89.205 134.990,87.946 134.000,87.603 134.000 C 87.259 134.000,86.387 133.460,85.664 132.800 C 84.942 132.140,84.041 131.600,83.662 131.600 C 83.283 131.600,81.989 130.600,80.786 129.377 C 79.155 127.719,78.375 127.196,77.714 127.319 C 77.227 127.410,76.765 127.294,76.687 127.062 C 76.610 126.830,76.454 126.901,76.341 127.220 " stroke="none" fill="#af2ce4" fill-rule="evenodd"></path></g></svg>